<svg width="508" height="208" viewBox="0 0 508 208" fill="none" xmlns="http://www.w3.org/2000/svg">
<path d="M388.315 56.5789L395.597 45.4582L400.258 40.7759V39.3126L398.219 36.9714V33.7523L401.86 32.7281L403.608 30.5332V29.07L402.734 27.4604V25.4118L408.123 19.2662V17.6567L407.395 15.6081V14.5839L406.23 12.9743V11.8037L408.123 10.6331V7.99929L409.434 5.95075V4.04854H411.182V2H413.221L415.843 4.78016H417.445L418.464 2L419.63 3.31692L418.901 5.36545L419.63 7.99929L421.377 7.12134V5.36545L423.562 4.78016L424.29 5.95075L424.873 7.56031L426.184 5.95075H427.495L428.369 7.99929L426.184 10.6331V12.9743L427.495 15.6081L429.243 16.7787L430.116 15.6081V10.6331L431.864 9.75517L434.049 8.87723V10.6331L435.651 11.8037L436.816 9.75517L437.69 8.87723L439.438 10.6331L438.273 12.389L440.021 13.9986V16.7787L443.225 18.3883L445.264 19.9979L446.138 22.9243L443.225 26.5824H440.895V29.07L442.497 29.8016L443.225 27.4604L446.138 25.4118L448.323 26.5824V29.07L447.157 31.4111H445.264L444.244 32.7281V36.9714L442.497 39.3126L441.623 40.7759L442.497 45.4582L440.895 46.4825L439.438 48.2384V50.5796H442.497L443.225 48.2384L445.264 46.4825L448.323 45.4582L449.488 43.556L448.323 40.7759V38.581L450.944 33.7523L453.129 32.7281H455.023L456.188 33.7523L455.023 36.9714L453.857 38.581L453.129 39.3126V40.7759H455.023L456.188 37.8494L457.499 35.6545H460.266L462.888 34.9229L465.655 32.7281L468.714 33.7523H469.588L470.461 31.4111L473.666 30.5332L475.559 32.7281H480.074L483.57 33.7523L485.9 35.6545L489.833 38.581L491.581 41.5075H496.096L497.407 42.6781L499.009 41.5075L500.757 43.556L502.941 40.7759H504.398L505.417 43.556L506 46.0435L504.398 48.2384L500.757 50.5796L499.009 53.6524H495.222L493.62 55.1156H491.581L487.503 57.7495L486.842 64.2559M486.842 64.2559L486.774 64.9193M486.842 64.2559L484.735 66.0899L481.968 67.8458L481.24 71.065L479.637 72.2355V75.8936L481.968 77.9422V80.7223L480.366 83.2098V87.0143L481.968 88.4775L483.57 91.843V94.9158L481.968 98.4276L478.035 101.793L477.161 106.036L475.559 107.353V110.133L476.433 112.767L480.366 118.328L481.968 122.425L480.366 124.766V128.131L478.035 130.18H474.831L470.898 129.009L469.588 132.814L466.675 131.35L465.509 129.009L463.616 127.4H460.703L459.392 129.009H455.751L452.547 132.814L450.07 136.179H447.012L444.681 137.935L441.623 140.715L439.438 141.593L438.418 140.715L436.525 141.593L433.612 143.788H427.786L422.98 146.276L421.96 148.763L420.358 152.421L419.63 155.348V158.42L418.027 160.615L417.154 163.981L415.26 167.785L413.512 171.151L411.619 172.906L410.745 176.857L411.619 180.076V185.929L414.241 188.563L413.512 190.612L411.619 192.807V197.196L410.745 199.391L411.619 201.001L410.745 202.171L409.871 204.805V207H408.852L406.812 204.805L404.773 203.049H401.715L400.841 200.269L398.365 197.196L395.597 194.709L397.054 192.807L398.365 191.49L397.054 189.587H395.597L393.85 187.685L391.956 185.051L389.48 181.101L386.858 178.906L386.13 176.857L386.858 174.955L389.48 172.906L391.956 171.151V167.785L393.121 165.737L395.597 163.981L399.239 162.956L399.967 159.591L400.841 157.104L398.365 153.299H393.85L391.956 154.177L389.48 157.104H387.878L386.13 155.348L383.945 152.421L382.343 149.787L380.887 147.007L379.285 145.398L378.119 143.788L377.245 141.593V139.398L374.769 137.935L371.711 136.911V135.448L373.75 133.984L376.372 132.814L379.285 129.009V124.766L380.158 122.425V119.645L381.615 118.328L382.343 116.279L379.285 113.938L380.887 110.865L380.158 108.67V104.719L374.769 97.4033H371.711L369.672 94.1842L367.196 93.1599L364.865 94.1842L361.952 90.0871H361.078L360.204 90.8187L357 90.0871V87.7459L361.952 84.0878L366.467 78.9665L369.672 76.6253L374.769 77.9422L375.498 75.8936H377.245L379.285 74.1378L380.887 69.0164L382.343 65.3583L383.945 64.1877H387.004L387.878 62.1392L389.48 60.9686L387.878 59.798V57.7495L388.752 56.4325M486.842 64.2559L486.92 64.1877M31.3251 82H1.4751V28.45H31.3251V38.8H15.0501V49.075H30.2001V59.425H15.0501V71.5H31.3251V82ZM47.647 61L35.647 40.825H50.947L56.872 53.2L62.947 40.825H78.172L66.022 61L78.697 82H63.472L56.872 68.65L50.272 82H35.047L47.647 61ZM107.557 40.075C111.857 40.075 115.232 41.9 117.682 45.55C120.182 49.15 121.432 54.4 121.432 61.3C121.432 66 120.807 69.95 119.557 73.15C118.307 76.35 116.607 78.75 114.457 80.35C112.307 81.95 109.857 82.75 107.107 82.75C105.307 82.75 103.757 82.5 102.457 82C101.157 81.5 100.107 80.875 99.3067 80.125C98.5067 79.325 97.8067 78.525 97.2067 77.725H96.7567C96.8567 78.675 96.9567 79.675 97.0567 80.725C97.1567 81.775 97.2067 82.9 97.2067 84.1V100H83.7067V40.825H94.6567L96.5317 46.075H97.2067C97.8567 44.975 98.6317 43.975 99.5317 43.075C100.432 42.175 101.532 41.45 102.832 40.9C104.182 40.35 105.757 40.075 107.557 40.075ZM102.457 50.05C101.157 50.05 100.107 50.425 99.3067 51.175C98.5067 51.925 97.9567 53.05 97.6567 54.55C97.3567 56 97.2067 57.85 97.2067 60.1V61.225C97.2067 63.675 97.3567 65.75 97.6567 67.45C98.0067 69.1 98.5567 70.375 99.3067 71.275C100.107 72.125 101.207 72.55 102.607 72.55C103.707 72.55 104.632 72.15 105.382 71.35C106.182 70.5 106.757 69.225 107.107 67.525C107.507 65.825 107.707 63.7 107.707 61.15C107.707 57.3 107.257 54.5 106.357 52.75C105.457 50.95 104.157 50.05 102.457 50.05ZM142.617 82H129.117V25H142.617V82ZM189.095 61.3C189.095 64.75 188.645 67.8 187.745 70.45C186.895 73.1 185.62 75.35 183.92 77.2C182.22 79.05 180.17 80.45 177.77 81.4C175.37 82.3 172.645 82.75 169.595 82.75C166.795 82.75 164.195 82.3 161.795 81.4C159.395 80.45 157.345 79.075 155.645 77.275C153.945 75.425 152.62 73.175 151.67 70.525C150.72 67.825 150.245 64.75 150.245 61.3C150.245 56.75 151.02 52.9 152.57 49.75C154.12 46.6 156.37 44.2 159.32 42.55C162.27 40.9 165.77 40.075 169.82 40.075C173.57 40.075 176.895 40.9 179.795 42.55C182.695 44.2 184.97 46.6 186.62 49.75C188.27 52.9 189.095 56.75 189.095 61.3ZM163.895 61.3C163.895 63.85 164.095 66 164.495 67.75C164.895 69.5 165.52 70.825 166.37 71.725C167.22 72.575 168.345 73 169.745 73C171.145 73 172.245 72.575 173.045 71.725C173.895 70.825 174.495 69.5 174.845 67.75C175.245 66 175.445 63.85 175.445 61.3C175.445 58.75 175.245 56.625 174.845 54.925C174.495 53.225 173.895 51.95 173.045 51.1C172.195 50.25 171.07 49.825 169.67 49.825C167.57 49.825 166.07 50.8 165.17 52.75C164.32 54.65 163.895 57.5 163.895 61.3ZM220.269 40.075C221.019 40.075 221.794 40.125 222.594 40.225C223.394 40.275 223.994 40.35 224.394 40.45L223.194 52.3C222.744 52.2 222.169 52.125 221.469 52.075C220.769 51.975 219.819 51.925 218.619 51.925C217.769 51.925 216.844 52.075 215.844 52.375C214.894 52.625 213.994 53.1 213.144 53.8C212.294 54.45 211.594 55.4 211.044 56.65C210.494 57.85 210.219 59.425 210.219 61.375V82H196.719V40.825H206.769L208.869 47.575H209.469C210.219 46.175 211.144 44.925 212.244 43.825C213.344 42.675 214.569 41.775 215.919 41.125C217.319 40.425 218.769 40.075 220.269 40.075ZM246.058 40.075C249.808 40.075 253.058 40.8 255.808 42.25C258.558 43.65 260.658 45.75 262.108 48.55C263.608 51.3 264.358 54.725 264.358 58.825V64.675H240.358C240.458 67.375 241.208 69.525 242.608 71.125C244.058 72.725 246.133 73.525 248.833 73.525C251.333 73.525 253.583 73.275 255.583 72.775C257.633 72.275 259.733 71.475 261.883 70.375V79.75C260.033 80.8 257.983 81.55 255.733 82C253.483 82.5 250.658 82.75 247.258 82.75C243.358 82.75 239.858 82 236.758 80.5C233.658 79 231.208 76.7 229.408 73.6C227.658 70.45 226.783 66.475 226.783 61.675C226.783 56.775 227.583 52.75 229.183 49.6C230.783 46.4 233.033 44.025 235.933 42.475C238.833 40.875 242.208 40.075 246.058 40.075ZM246.433 48.85C244.833 48.85 243.508 49.475 242.458 50.725C241.408 51.925 240.783 53.85 240.583 56.5H252.208C252.208 55.05 251.983 53.75 251.533 52.6C251.083 51.45 250.433 50.55 249.583 49.9C248.783 49.2 247.733 48.85 246.433 48.85ZM327.45 61.3C327.45 64.75 327 67.8 326.1 70.45C325.25 73.1 323.975 75.35 322.275 77.2C320.575 79.05 318.525 80.45 316.125 81.4C313.725 82.3 311 82.75 307.95 82.75C305.15 82.75 302.55 82.3 300.15 81.4C297.75 80.45 295.7 79.075 294 77.275C292.3 75.425 290.975 73.175 290.025 70.525C289.075 67.825 288.6 64.75 288.6 61.3C288.6 56.75 289.375 52.9 290.925 49.75C292.475 46.6 294.725 44.2 297.675 42.55C300.625 40.9 304.125 40.075 308.175 40.075C311.925 40.075 315.25 40.9 318.15 42.55C321.05 44.2 323.325 46.6 324.975 49.75C326.625 52.9 327.45 56.75 327.45 61.3ZM302.25 61.3C302.25 63.85 302.45 66 302.85 67.75C303.25 69.5 303.875 70.825 304.725 71.725C305.575 72.575 306.7 73 308.1 73C309.5 73 310.6 72.575 311.4 71.725C312.25 70.825 312.85 69.5 313.2 67.75C313.6 66 313.8 63.85 313.8 61.3C313.8 58.75 313.6 56.625 313.2 54.925C312.85 53.225 312.25 51.95 311.4 51.1C310.55 50.25 309.425 49.825 308.025 49.825C305.925 49.825 304.425 50.8 303.525 52.75C302.675 54.65 302.25 57.5 302.25 61.3ZM23.6001 184L13.1001 143.275H12.8001C12.9001 144.275 13.0001 145.7 13.1001 147.55C13.2001 149.4 13.3001 151.4 13.4001 153.55C13.5001 155.7 13.5501 157.7 13.5501 159.55V184H1.4751V130.45H20.4501L30.0501 167.725H30.2751L39.8001 130.45H58.7751V184H46.2501V159.175C46.2501 157.475 46.2751 155.6 46.3251 153.55C46.3751 151.45 46.4501 149.475 46.5501 147.625C46.6501 145.775 46.7251 144.35 46.7751 143.35H46.5501L36.2001 184H23.6001ZM87.9618 142C92.9118 142 96.7618 143.25 99.5118 145.75C102.312 148.2 103.712 151.85 103.712 156.7V184H94.4118L91.8618 178.45H91.4868C90.3868 179.9 89.2618 181.1 88.1118 182.05C86.9618 183 85.6368 183.675 84.1368 184.075C82.6368 184.525 80.8118 184.75 78.6618 184.75C76.4618 184.75 74.4618 184.275 72.6618 183.325C70.8618 182.375 69.4368 180.925 68.3868 178.975C67.3368 177.025 66.8118 174.55 66.8118 171.55C66.8118 167.15 68.2618 163.9 71.1618 161.8C74.0618 159.65 78.2368 158.475 83.6868 158.275L90.2118 158.05V156.85C90.2118 154.85 89.7868 153.4 88.9368 152.5C88.0868 151.6 86.9368 151.15 85.4868 151.15C83.9368 151.15 82.2118 151.45 80.3118 152.05C78.4118 152.6 76.5118 153.3 74.6118 154.15L70.7868 145.75C73.0368 144.55 75.5868 143.625 78.4368 142.975C81.2868 142.325 84.4618 142 87.9618 142ZM87.2118 165.4C84.7618 165.5 83.0118 166.075 81.9618 167.125C80.9618 168.125 80.4618 169.5 80.4618 171.25C80.4618 172.8 80.8118 173.925 81.5118 174.625C82.2618 175.325 83.2118 175.675 84.3618 175.675C86.0118 175.675 87.4118 175.05 88.5618 173.8C89.7118 172.5 90.2868 170.75 90.2868 168.55V165.25L87.2118 165.4ZM136.407 142.075C137.157 142.075 137.932 142.125 138.732 142.225C139.532 142.275 140.132 142.35 140.532 142.45L139.332 154.3C138.882 154.2 138.307 154.125 137.607 154.075C136.907 153.975 135.957 153.925 134.757 153.925C133.907 153.925 132.982 154.075 131.982 154.375C131.032 154.625 130.132 155.1 129.282 155.8C128.432 156.45 127.732 157.4 127.182 158.65C126.632 159.85 126.357 161.425 126.357 163.375V184H112.857V142.825H122.907L125.007 149.575H125.607C126.357 148.175 127.282 146.925 128.382 145.825C129.482 144.675 130.707 143.775 132.057 143.125C133.457 142.425 134.907 142.075 136.407 142.075ZM163.621 142C168.571 142 172.421 143.25 175.171 145.75C177.971 148.2 179.371 151.85 179.371 156.7V184H170.071L167.521 178.45H167.146C166.046 179.9 164.921 181.1 163.771 182.05C162.621 183 161.296 183.675 159.796 184.075C158.296 184.525 156.471 184.75 154.321 184.75C152.121 184.75 150.121 184.275 148.321 183.325C146.521 182.375 145.096 180.925 144.046 178.975C142.996 177.025 142.471 174.55 142.471 171.55C142.471 167.15 143.921 163.9 146.821 161.8C149.721 159.65 153.896 158.475 159.346 158.275L165.871 158.05V156.85C165.871 154.85 165.446 153.4 164.596 152.5C163.746 151.6 162.596 151.15 161.146 151.15C159.596 151.15 157.871 151.45 155.971 152.05C154.071 152.6 152.171 153.3 150.271 154.15L146.446 145.75C148.696 144.55 151.246 143.625 154.096 142.975C156.946 142.325 160.121 142 163.621 142ZM162.871 165.4C160.421 165.5 158.671 166.075 157.621 167.125C156.621 168.125 156.121 169.5 156.121 171.25C156.121 172.8 156.471 173.925 157.171 174.625C157.921 175.325 158.871 175.675 160.021 175.675C161.671 175.675 163.071 175.05 164.221 173.8C165.371 172.5 165.946 170.75 165.946 168.55V165.25L162.871 165.4ZM212.891 142.075C216.941 142.075 220.241 143.275 222.791 145.675C225.341 148.025 226.616 151.85 226.616 157.15V184H213.191V160.675C213.191 157.825 212.816 155.675 212.066 154.225C211.316 152.775 210.091 152.05 208.391 152.05C205.841 152.05 204.141 153.2 203.291 155.5C202.441 157.75 202.016 161 202.016 165.25V184H188.516V142.825H198.641L200.516 148.15H200.966C201.866 146.8 202.866 145.675 203.966 144.775C205.116 143.875 206.441 143.2 207.941 142.75C209.441 142.3 211.091 142.075 212.891 142.075ZM249.258 136.975C249.258 139.475 249.183 141.725 249.033 143.725C248.883 145.675 248.758 147.1 248.658 148H249.333C250.183 146.55 251.133 145.4 252.183 144.55C253.233 143.7 254.408 143.075 255.708 142.675C257.058 142.275 258.483 142.075 259.983 142.075C262.583 142.075 264.933 142.6 267.033 143.65C269.133 144.7 270.783 146.325 271.983 148.525C273.233 150.725 273.858 153.6 273.858 157.15V184H260.283V160.675C260.283 157.775 259.908 155.625 259.158 154.225C258.458 152.775 257.283 152.05 255.633 152.05C254.033 152.05 252.758 152.575 251.808 153.625C250.858 154.625 250.183 156.1 249.783 158.05C249.433 160 249.258 162.4 249.258 165.25V184H235.758V127H249.258V136.975ZM302.049 142C306.999 142 310.849 143.25 313.599 145.75C316.399 148.2 317.799 151.85 317.799 156.7V184H308.499L305.949 178.45H305.574C304.474 179.9 303.349 181.1 302.199 182.05C301.049 183 299.724 183.675 298.224 184.075C296.724 184.525 294.899 184.75 292.749 184.75C290.549 184.75 288.549 184.275 286.749 183.325C284.949 182.375 283.524 180.925 282.474 178.975C281.424 177.025 280.899 174.55 280.899 171.55C280.899 167.15 282.349 163.9 285.249 161.8C288.149 159.65 292.324 158.475 297.774 158.275L304.299 158.05V156.85C304.299 154.85 303.874 153.4 303.024 152.5C302.174 151.6 301.024 151.15 299.574 151.15C298.024 151.15 296.299 151.45 294.399 152.05C292.499 152.6 290.599 153.3 288.699 154.15L284.874 145.75C287.124 144.55 289.674 143.625 292.524 142.975C295.374 142.325 298.549 142 302.049 142ZM301.299 165.4C298.849 165.5 297.099 166.075 296.049 167.125C295.049 168.125 294.549 169.5 294.549 171.25C294.549 172.8 294.899 173.925 295.599 174.625C296.349 175.325 297.299 175.675 298.449 175.675C300.099 175.675 301.499 175.05 302.649 173.8C303.799 172.5 304.374 170.75 304.374 168.55V165.25L301.299 165.4ZM285.924 138.175C286.074 136.075 286.374 134.275 286.824 132.775C287.274 131.275 287.849 130.05 288.549 129.1C289.299 128.15 290.174 127.45 291.174 127C292.174 126.55 293.324 126.325 294.624 126.325C295.474 126.325 296.399 126.525 297.399 126.925C298.399 127.275 299.399 127.7 300.399 128.2C301.399 128.7 302.374 129.125 303.324 129.475C304.324 129.825 305.249 130 306.099 130C306.549 130 307.024 129.725 307.524 129.175C308.024 128.625 308.374 127.65 308.574 126.25H314.949C314.649 130.4 313.724 133.425 312.174 135.325C310.624 137.175 308.699 138.1 306.399 138.1C305.399 138.1 304.374 137.925 303.324 137.575C302.274 137.225 301.249 136.8 300.249 136.3C299.249 135.8 298.274 135.375 297.324 135.025C296.374 134.625 295.449 134.425 294.549 134.425C294.149 134.425 293.699 134.7 293.199 135.25C292.749 135.8 292.374 136.775 292.074 138.175H285.924ZM364.144 163.3C364.144 166.75 363.694 169.8 362.794 172.45C361.944 175.1 360.669 177.35 358.969 179.2C357.269 181.05 355.219 182.45 352.819 183.4C350.419 184.3 347.694 184.75 344.644 184.75C341.844 184.75 339.244 184.3 336.844 183.4C334.444 182.45 332.394 181.075 330.694 179.275C328.994 177.425 327.669 175.175 326.719 172.525C325.769 169.825 325.294 166.75 325.294 163.3C325.294 158.75 326.069 154.9 327.619 151.75C329.169 148.6 331.419 146.2 334.369 144.55C337.319 142.9 340.819 142.075 344.869 142.075C348.619 142.075 351.944 142.9 354.844 144.55C357.744 146.2 360.019 148.6 361.669 151.75C363.319 154.9 364.144 158.75 364.144 163.3ZM338.944 163.3C338.944 165.85 339.144 168 339.544 169.75C339.944 171.5 340.569 172.825 341.419 173.725C342.269 174.575 343.394 175 344.794 175C346.194 175 347.294 174.575 348.094 173.725C348.944 172.825 349.544 171.5 349.894 169.75C350.294 168 350.494 165.85 350.494 163.3C350.494 160.75 350.294 158.625 349.894 156.925C349.544 155.225 348.944 153.95 348.094 153.1C347.244 152.25 346.119 151.825 344.719 151.825C342.619 151.825 341.119 152.8 340.219 154.75C339.369 156.65 338.944 159.5 338.944 163.3Z" stroke="#A7321C" stroke-width="2"/>
</svg>
